<svg width="16" height="10" viewBox="0 0 16 10" fill="none" xmlns="http://www.w3.org/2000/svg">
<path d="M0.0894101 7.71269L6.17082 1.02613C6.23487 0.956569 6.3251 0.916992 6.41966 0.916992H9.49415C9.68096 0.916992 9.8324 1.06843 9.8324 1.25524V2.73855C9.8324 2.82599 9.79854 2.91003 9.73792 2.97304L3.58584 9.47848C3.52207 9.54478 3.43405 9.58224 3.34207 9.58224H0.944785C0.846016 9.58224 0.752182 9.53907 0.68792 9.46406L0.081382 8.75612C0.0288652 8.69482 0 8.61676 0 8.53605V7.9418C0 7.85692 0.0319149 7.77514 0.0894101 7.71269Z" fill="black"/>
<path d="M6.89381 9.58224H11.5576C11.6542 9.58224 11.7462 9.54094 11.8104 9.46876L15.9145 4.8534C15.9696 4.79148 16 4.7115 16 4.62863V1.25524C16 1.06843 15.8486 0.916992 15.6618 0.916992H14.3635C14.2673 0.916992 14.1756 0.957979 14.1114 1.02969L8.07447 7.72718C8.02706 7.77978 7.95958 7.8098 7.88877 7.8098H6.22691C6.0401 7.8098 5.88866 7.96124 5.88866 8.14805V8.528C5.88866 8.61356 5.92108 8.69594 5.97939 8.75854L6.64629 9.47453C6.71028 9.54323 6.79993 9.58224 6.89381 9.58224Z" fill="black"/>
<path d="M2.96202 0.916992H0.338247C0.151438 0.916992 0 1.06843 0 1.25524V3.93435C0 4.12115 0.151438 4.27259 0.338247 4.27259H1.54155C1.63694 4.27259 1.72789 4.23232 1.792 4.16169L3.21247 2.59688C3.26897 2.53464 3.30027 2.45359 3.30027 2.36953V1.25524C3.30027 1.06843 3.14883 0.916992 2.96202 0.916992Z" fill="black"/>
</svg>
